<svg xmlns="http://www.w3.org/2000/svg" viewBox="0 0 512 512" fill="none" aria-hidden="true">
  <g fill="#111">
    <path d="M 186.5,68.5 C 202.512,67.3443 209.346,74.6776 207,90.5C 190.796,119.08 173.963,147.247 156.5,175C 222.5,175.667 288.5,175.667 354.5,175C 337.037,147.247 320.204,119.08 304,90.5C 301.638,74.529 308.471,67.3624 324.5,69C 329.935,70.7694 333.768,74.2694 336,79.5C 354.789,111.582 373.956,143.416 393.5,175C 420.5,175.333 447.5,175.667 474.5,176C 485.09,181.436 487.924,189.603 483,200.5C 477.295,206.974 470.128,209.307 461.5,207.5C 451.326,271.543 440.826,335.543 430,399.5C 422.463,423.518 406.297,437.685 381.5,442C 297.5,442.667 213.5,442.667 129.5,442C 104.703,437.685 88.5365,423.518 81,399.5C 70.1738,335.543 59.6738,271.543 49.5,207.5C 35.9637,210.085 27.9637,204.752 25.5,191.5C 25.8692,183.968 29.5358,178.802 36.5,176C 63.5,175.667 90.5,175.333 117.5,175C 138.5,140.667 159.5,106.333 180.5,72C 182.432,70.5415 184.432,69.3748 186.5,68.5 Z M 82.5,208.5 C 197.666,207.334 312.999,207.167 428.5,208C 418.295,267.061 408.462,326.228 399,385.5C 397.141,397.743 390.307,405.577 378.5,409C 296.5,409.667 214.5,409.667 132.5,409C 122.433,406.6 115.933,400.434 113,390.5C 103.135,329.643 92.9684,268.977 82.5,208.5 Z"/>
    <path d="M 166.5,249.5 C 176.011,248.83 182.511,252.83 186,261.5C 186.667,293.167 186.667,324.833 186,356.5C 180.521,367.806 172.021,370.639 160.5,365C 157.131,362.635 154.964,359.468 154,355.5C 153.333,324.5 153.333,293.5 154,262.5C 155.682,255.653 159.849,251.32 166.5,249.5 Z"/>
    <path d="M 251.5,249.5 C 260.755,248.376 267.255,252.042 271,260.5C 271.667,292.833 271.667,325.167 271,357.5C 268.193,364.487 263.027,367.82 255.5,367.5C 247.973,367.82 242.807,364.487 240,357.5C 239.333,325.167 239.333,292.833 240,260.5C 242.437,255.226 246.271,251.56 251.5,249.5 Z"/>
    <path d="M 337.5,249.5 C 347.395,248.916 353.895,253.25 357,262.5C 357.667,293.5 357.667,324.5 357,355.5C 352.927,365.788 345.427,369.621 334.5,367C 329.6,365.098 326.433,361.598 325,356.5C 324.333,324.833 324.333,293.167 325,261.5C 327.085,255.246 331.252,251.246 337.5,249.5 Z"/>
  </g>
</svg>
